<svg width="257" height="47" viewBox="0 0 257 47" fill="none" xmlns="http://www.w3.org/2000/svg">
<path d="M0 46L8.85 4.37222H26.4844C29.1941 4.37222 31.5541 4.6563 33.5644 5.22445C35.6185 5.74889 37.3011 6.64482 38.6122 7.91222C39.967 9.17963 40.9722 10.8404 41.6278 12.8944C42.327 14.9485 42.6767 17.4615 42.6767 20.4333C42.6767 23.6237 42.2615 26.7485 41.4311 29.8078C40.6444 32.867 39.3115 35.5985 37.4322 38.0022C35.553 40.4059 33.0837 42.3507 30.0244 43.8367C27.0089 45.2789 23.2722 46 18.8144 46H0ZM17.9622 41.4111C19.4044 41.4111 20.6719 40.8211 21.7644 39.6411C22.9007 38.4174 23.8622 36.8878 24.6489 35.0522C25.4793 33.173 26.1567 31.1189 26.6811 28.89C27.2493 26.6174 27.6863 24.4322 27.9922 22.3344C28.3419 20.2367 28.5822 18.3574 28.7133 16.6967C28.8881 15.0359 28.9756 13.8559 28.9756 13.1567C28.9756 11.8019 28.6915 10.753 28.1233 10.01C27.5989 9.22333 26.6593 8.83 25.3044 8.83H22.1578L15.1433 41.4111H17.9622ZM61.4327 17.09C66.6335 17.09 70.4138 18.0078 72.7738 19.8433C75.2649 21.7663 76.5105 24.9567 76.5105 29.4144C76.5105 32.1678 76.0516 34.6589 75.1338 36.8878C74.2161 39.073 72.9268 40.8867 71.2661 42.3289C67.9446 45.1259 63.1372 46.5244 56.8438 46.5244C51.4683 46.5244 47.6224 45.4974 45.3061 43.4433C42.8149 41.3019 41.5694 38.0896 41.5694 33.8067C41.5694 30.9659 42.1375 28.3874 43.2738 26.0711C44.4538 23.7548 46.1364 21.8319 48.3216 20.3022C51.512 18.1607 55.8824 17.09 61.4327 17.09ZM56.9749 42.0667C58.0675 42.0667 59.0072 41.4548 59.7938 40.2311C60.6242 39.0074 61.2798 37.5215 61.7605 35.7733C62.2412 33.9815 62.5909 32.1459 62.8094 30.2667C63.0716 28.3437 63.2027 26.683 63.2027 25.2844C63.2027 24.0607 63.0716 23.143 62.8094 22.5311C62.5909 21.8756 62.0883 21.5478 61.3016 21.5478C60.1216 21.5478 59.0946 22.1815 58.2205 23.4489C57.3901 24.7163 56.7127 26.2241 56.1883 27.9722C55.6638 29.7204 55.2705 31.5122 55.0083 33.3478C54.7898 35.1833 54.6805 36.6693 54.6805 37.8056C54.6805 40.6463 55.4453 42.0667 56.9749 42.0667ZM104.974 44.4267C103.139 45.1696 101.194 45.6941 99.14 46C97.1296 46.3496 94.8352 46.5244 92.2566 46.5244C89.984 46.5244 87.8863 46.3059 85.9633 45.8689C84.084 45.3881 82.4452 44.6452 81.0466 43.64C79.6481 42.6348 78.5555 41.3456 77.7689 39.7722C76.9822 38.1552 76.5889 36.2104 76.5889 33.9378C76.5889 31.5778 76.9822 29.3926 77.7689 27.3822C78.5992 25.3281 79.8229 23.5363 81.44 22.0067C83.1007 20.477 85.1985 19.2752 87.7333 18.4011C90.2681 17.527 93.2837 17.09 96.78 17.09C99.6207 17.09 102.09 17.3304 104.188 17.8111C106.286 18.2481 108.012 19.2752 109.367 20.8922L107.531 29.2833H98.6155C98.6592 28.5404 98.7029 27.8848 98.7466 27.3167C98.7903 26.7485 98.8122 26.1148 98.8122 25.4156C98.8122 24.017 98.6592 23.0337 98.3533 22.4656C98.0474 21.8537 97.5448 21.5478 96.8455 21.5478C95.6218 21.5478 94.5511 22.1596 93.6333 23.3833C92.7155 24.5633 91.9507 26.0056 91.3389 27.71C90.7707 29.3707 90.3337 31.1407 90.0277 33.02C89.7655 34.8556 89.6344 36.4289 89.6344 37.74C89.6344 38.2207 89.6563 38.7233 89.7 39.2478C89.7437 39.7285 89.8311 40.1874 89.9622 40.6244C90.137 41.0615 90.3555 41.4111 90.6177 41.6733C90.88 41.9356 91.2514 42.0667 91.7322 42.0667C92.1692 42.0667 92.6718 41.9356 93.24 41.6733C93.8081 41.4111 94.3544 41.0178 94.8789 40.4933C95.4033 39.9252 95.9059 39.2041 96.3866 38.33C96.8674 37.4559 97.2389 36.407 97.5011 35.1833H106.876L104.974 44.4267Z" fill="#003639"/>
<path d="M129.272 39.825C129.272 42.0783 128.795 43.6817 127.842 44.635C126.932 45.545 125.35 46 123.097 46H115.167C113.91 46 113 45.6967 112.437 45.09C111.917 44.44 111.527 43.4867 111.267 42.23H121.017C122.36 42.23 123.205 41.9483 123.552 41.385C123.898 40.8217 124.072 39.8683 124.072 38.525V27.995C124.072 26.6517 123.877 25.6983 123.487 25.135C123.14 24.5717 122.23 24.29 120.757 24.29H117.442C115.188 24.29 113.585 23.835 112.632 22.925C111.722 21.9717 111.267 20.3683 111.267 18.115V6.675C111.267 4.42167 111.722 2.84 112.632 1.93C113.585 0.976664 115.188 0.499997 117.442 0.499997H125.177C126.433 0.499997 127.322 0.824997 127.842 1.475C128.405 2.08167 128.817 3.01333 129.077 4.27H119.522C118.178 4.27 117.333 4.55167 116.987 5.115C116.64 5.67833 116.467 6.63166 116.467 7.975V16.815C116.467 18.1583 116.64 19.1117 116.987 19.675C117.333 20.2383 118.178 20.52 119.522 20.52H123.097C125.35 20.52 126.932 20.9967 127.842 21.95C128.795 22.86 129.272 24.4417 129.272 26.695V39.825ZM146.463 12.98C147.157 12.98 147.59 13.11 147.763 13.37C147.98 13.5867 148.088 14.0417 148.088 14.735V16.75H140.093V38.525C140.093 39.8683 140.267 40.8217 140.613 41.385C140.96 41.9483 141.805 42.23 143.148 42.23H148.803C148.717 43.4867 148.457 44.44 148.023 45.09C147.633 45.6967 146.81 46 145.553 46H141.068C138.815 46 137.212 45.545 136.258 44.635C135.348 43.6817 134.893 42.0783 134.893 39.825V7.195C134.893 6.50167 135.002 6.04666 135.218 5.83C135.478 5.57 135.955 5.44 136.648 5.44H140.093V12.98H146.463ZM157.169 16.75V44.245C157.169 44.9383 157.039 45.415 156.779 45.675C156.563 45.8917 156.108 46 155.414 46H151.969V14.735C151.969 14.0417 152.078 13.5867 152.294 13.37C152.554 13.11 153.031 12.98 153.724 12.98H157.169V16.75C157.733 15.2767 158.318 14.28 158.924 13.76C159.531 13.24 160.463 12.98 161.719 12.98H164.254C164.948 12.98 165.381 13.11 165.554 13.37C165.771 13.5867 165.879 14.0417 165.879 14.735V16.75H157.169ZM186.976 42.23V44.245C186.976 44.9383 186.868 45.415 186.651 45.675C186.478 45.8917 186.045 46 185.351 46H175.536C173.283 46 171.68 45.545 170.726 44.635C169.816 43.6817 169.361 42.0783 169.361 39.825V19.155C169.361 16.9017 169.816 15.32 170.726 14.41C171.68 13.4567 173.283 12.98 175.536 12.98H182.686C184.94 12.98 186.521 13.4567 187.431 14.41C188.385 15.32 188.861 16.9017 188.861 19.155V26.435C188.861 28.6883 188.385 30.2917 187.431 31.245C186.521 32.155 184.94 32.61 182.686 32.61H178.786C178.093 32.61 177.638 32.5017 177.421 32.285C177.248 32.025 177.161 31.5483 177.161 30.855V28.84H180.931C182.275 28.84 183.12 28.5583 183.466 27.995C183.813 27.4317 183.986 26.4783 183.986 25.135V20.13C183.986 18.7867 183.77 17.8983 183.336 17.465C182.903 16.9883 182.015 16.75 180.671 16.75H177.876C176.446 16.75 175.536 17.01 175.146 17.53C174.756 18.0067 174.561 18.9817 174.561 20.455V38.525C174.561 39.8683 174.735 40.8217 175.081 41.385C175.428 41.9483 176.273 42.23 177.616 42.23H186.976ZM208.432 20.455C208.432 19.1117 208.259 18.1583 207.912 17.595C207.565 17.0317 206.72 16.75 205.377 16.75H194.132C194.392 15.4933 194.782 14.5617 195.302 13.955C195.865 13.305 196.775 12.98 198.032 12.98H207.457C209.71 12.98 211.292 13.4567 212.202 14.41C213.155 15.32 213.632 16.9017 213.632 19.155V46H210.187C209.494 46 209.017 45.8917 208.757 45.675C208.54 45.415 208.432 44.9383 208.432 44.245V20.455ZM199.007 46C196.754 46 195.15 45.545 194.197 44.635C193.287 43.6817 192.832 42.0783 192.832 39.825V32.675C192.832 30.4217 193.287 28.84 194.197 27.93C195.15 26.9767 196.754 26.5 199.007 26.5H204.532C205.789 26.5 206.677 26.825 207.197 27.475C207.76 28.0817 208.172 29.0133 208.432 30.27H201.087C199.744 30.27 198.899 30.5517 198.552 31.115C198.205 31.6783 198.032 32.6317 198.032 33.975V39.045C198.032 40.3883 198.27 41.255 198.747 41.645C199.267 42.035 200.199 42.23 201.542 42.23H205.832V44.245C205.832 44.9383 205.724 45.415 205.507 45.675C205.334 45.8917 204.9 46 204.207 46H199.007ZM240.513 44.245C240.513 44.9383 240.383 45.415 240.123 45.675C239.906 45.8917 239.451 46 238.758 46H235.313V20.455C235.313 19.1117 235.139 18.1583 234.793 17.595C234.446 17.0317 233.601 16.75 232.258 16.75H224.653V44.245C224.653 44.9383 224.523 45.415 224.263 45.675C224.046 45.8917 223.591 46 222.898 46H219.453V14.735C219.453 14.0417 219.561 13.5867 219.778 13.37C220.038 13.11 220.514 12.98 221.208 12.98H224.653V16.75C224.913 15.4933 225.303 14.5617 225.823 13.955C226.386 13.305 227.296 12.98 228.553 12.98H234.338C236.591 12.98 238.173 13.4567 239.083 14.41C240.036 15.32 240.513 16.9017 240.513 19.155V44.245ZM256.373 44.245C256.373 44.9383 256.243 45.415 255.983 45.675C255.766 45.8917 255.311 46 254.618 46H251.173V20.455C251.173 19.1117 250.999 18.1583 250.653 17.595C250.306 17.0317 249.461 16.75 248.118 16.75H240.318C240.578 15.4933 240.968 14.5617 241.488 13.955C242.051 13.305 242.961 12.98 244.218 12.98H250.198C252.451 12.98 254.033 13.4567 254.943 14.41C255.896 15.32 256.373 16.9017 256.373 19.155V44.245Z" fill="#1DA0FF"/>
</svg>
